<?xml version="1.0" encoding="UTF-8"?> <svg xmlns="http://www.w3.org/2000/svg" width="735" height="617" viewBox="0 0 735 617" fill="none"><rect width="623" height="617" transform="translate(37)" fill="white"></rect><g clip-path="url(#clip0_1931_8731)"><path d="M724.149 195.669H667.622C661.64 195.669 656.771 190.806 656.771 184.829C656.771 178.852 661.64 173.988 667.622 173.988H668.208C668.615 168.379 673.313 163.94 679.029 163.94C679.599 163.94 680.173 163.985 680.74 164.077C682.215 157.01 688.583 151.781 695.886 151.781C702.032 151.781 707.494 155.335 709.991 160.894C710.906 160.686 711.842 160.579 712.781 160.579C719.691 160.579 725.314 166.197 725.314 173.1C725.314 173.415 725.302 173.733 725.275 174.05C730.711 174.621 734.997 179.285 734.997 184.829C734.997 190.806 730.129 195.669 724.146 195.669H724.149ZM667.622 175.577C662.513 175.577 658.359 179.728 658.359 184.832C658.359 189.936 662.513 194.087 667.622 194.087H724.149C729.258 194.087 733.413 189.936 733.413 184.832C733.413 179.728 729.359 175.704 724.378 175.583C724.152 175.577 723.938 175.476 723.789 175.301C723.644 175.128 723.578 174.9 723.611 174.674C723.688 174.145 723.727 173.617 723.727 173.1C723.727 167.07 718.817 162.165 712.781 162.165C711.756 162.165 710.736 162.31 709.747 162.595C709.357 162.708 708.941 162.506 708.79 162.126C706.677 156.808 701.613 153.37 695.889 153.37C689.086 153.37 683.186 158.426 682.167 165.134C682.134 165.354 682.009 165.55 681.825 165.671C681.641 165.796 681.415 165.838 681.198 165.784C680.485 165.615 679.757 165.529 679.035 165.529C673.926 165.529 669.771 169.68 669.771 174.784C669.771 175.223 669.414 175.577 668.977 175.577H667.625H667.622Z" fill="#F0F2F7"></path><path d="M102.042 360.271H45.5157C39.5331 360.271 34.665 355.407 34.665 349.43C34.665 343.453 39.5331 338.59 45.5157 338.59H46.1012C46.5083 332.981 51.207 328.542 56.9221 328.542C57.4927 328.542 58.0663 328.586 58.6339 328.678C60.108 321.612 66.477 316.383 73.7791 316.383C79.9251 316.383 85.3846 319.937 87.884 325.495C88.7994 325.288 89.7356 325.181 90.6747 325.181C97.5845 325.181 103.208 330.798 103.208 337.702C103.208 338.017 103.196 338.334 103.169 338.652C108.605 339.222 112.89 343.887 112.89 349.43C112.89 355.407 108.022 360.271 102.04 360.271H102.042ZM45.5157 340.178C40.4069 340.178 36.2521 344.329 36.2521 349.433C36.2521 354.537 40.4069 358.688 45.5157 358.688H102.042C107.151 358.688 111.306 354.537 111.306 349.433C111.306 344.329 107.255 340.306 102.274 340.184C102.048 340.178 101.834 340.077 101.686 339.902C101.54 339.73 101.475 339.501 101.508 339.279C101.585 338.75 101.623 338.222 101.623 337.705C101.623 331.674 96.7138 326.769 90.6777 326.769C89.6524 326.769 88.633 326.915 87.6433 327.2C87.251 327.313 86.8379 327.111 86.6863 326.731C84.5733 321.41 79.509 317.974 73.785 317.974C66.9822 317.974 61.0829 323.031 60.0635 329.738C60.0308 329.958 59.906 330.154 59.7217 330.276C59.5374 330.401 59.3086 330.439 59.0946 330.389C58.3843 330.216 57.6532 330.13 56.931 330.13C51.8222 330.13 47.6674 334.281 47.6674 339.385C47.6674 339.822 47.3108 340.178 46.8739 340.178H45.5216H45.5157Z" fill="#F0F2F7"></path><path d="M721.855 324.304H686.525C682.622 324.304 679.445 321.13 679.445 317.231C679.445 313.333 682.619 310.158 686.525 310.158H686.62C687.015 306.631 690.02 303.879 693.654 303.879C693.934 303.879 694.216 303.896 694.492 303.929C695.547 299.514 699.577 296.277 704.187 296.277C708.065 296.277 711.522 298.475 713.174 301.928C713.694 301.827 714.22 301.773 714.749 301.773C719.234 301.773 722.881 305.417 722.881 309.897C722.881 310.007 722.881 310.12 722.875 310.23C726.287 310.732 728.935 313.707 728.935 317.225C728.935 321.124 725.76 324.298 721.855 324.298V324.304ZM686.525 311.744C683.496 311.744 681.032 314.206 681.032 317.231C681.032 320.257 683.496 322.718 686.525 322.718H721.855C724.884 322.718 727.348 320.257 727.348 317.231C727.348 314.206 724.943 311.821 721.992 311.75C721.763 311.744 721.552 311.643 721.404 311.468C721.258 311.296 721.193 311.067 721.225 310.841C721.27 310.527 721.294 310.212 721.294 309.9C721.294 306.296 718.357 303.362 714.749 303.362C714.137 303.362 713.528 303.448 712.933 303.617C712.541 303.73 712.128 303.525 711.976 303.148C710.701 299.938 707.643 297.863 704.19 297.863C700.086 297.863 696.525 300.915 695.907 304.962C695.874 305.182 695.75 305.378 695.565 305.5C695.381 305.624 695.152 305.666 694.938 305.613C694.516 305.512 694.085 305.461 693.654 305.461C690.626 305.461 688.162 307.923 688.162 310.948C688.162 311.388 687.806 311.741 687.369 311.741H686.525V311.744Z" fill="#F0F2F7"></path><path d="M74.3973 170.433H39.0665C35.1643 170.433 31.9873 167.259 31.9873 163.36C31.9873 159.462 35.1614 156.287 39.0665 156.287H39.1616C39.5569 152.76 42.5616 150.007 46.1963 150.007C46.4756 150.007 46.755 150.025 47.0344 150.058C48.0894 145.646 52.1194 142.406 56.7289 142.406C60.6073 142.406 64.0637 144.603 65.7162 148.057C66.2362 147.956 66.7623 147.902 67.2913 147.902C71.776 147.902 75.4226 151.546 75.4226 156.026C75.4226 156.136 75.4226 156.246 75.4167 156.359C78.876 156.846 81.4765 159.773 81.4765 163.357C81.4765 167.256 78.3024 170.43 74.3973 170.43V170.433ZM39.0665 157.873C36.0381 157.873 33.5743 160.334 33.5743 163.36C33.5743 166.386 36.0381 168.847 39.0665 168.847H74.3973C77.4257 168.847 79.8895 166.386 79.8895 163.36C79.8895 160.334 77.4881 157.95 74.534 157.879C74.3081 157.873 74.0941 157.772 73.9455 157.597C73.7999 157.425 73.7345 157.196 73.7672 156.973C73.8118 156.659 73.8356 156.341 73.8356 156.032C73.8356 152.427 70.8993 149.494 67.2913 149.494C66.6791 149.494 66.0698 149.58 65.4754 149.749C65.0802 149.865 64.67 149.657 64.5185 149.28C63.2435 146.07 60.1853 143.995 56.7319 143.995C52.6276 143.995 49.0672 147.047 48.449 151.094C48.4163 151.314 48.2915 151.51 48.1073 151.632C47.923 151.756 47.6971 151.798 47.4802 151.744C47.0581 151.644 46.6242 151.593 46.1963 151.593C43.1678 151.593 40.7041 154.055 40.7041 157.08C40.7041 157.52 40.3474 157.873 39.9106 157.873H39.0665Z" fill="#F0F2F7"></path><g filter="url(#filter0_d_1931_8731)"><path d="M629.317 143.195V436.609C629.317 442.393 624.624 447.087 618.829 447.087H115.372C109.582 447.087 104.884 442.393 104.884 436.609V143.195H629.317Z" fill="#F0F2F7"></path></g><path d="M188.794 163.918H136.354C133.457 163.918 131.108 166.264 131.108 169.159V179.634C131.108 182.528 133.457 184.875 136.354 184.875H188.794C191.691 184.875 194.04 182.528 194.04 179.634V169.159C194.04 166.264 191.691 163.918 188.794 163.918Z" fill="#36CCC4"></path><path d="M219.738 383.692H136.354C133.456 383.692 131.108 381.347 131.108 378.452C131.108 375.557 133.456 373.211 136.354 373.211H219.738C222.636 373.211 224.984 375.557 224.984 378.452C224.984 381.347 222.636 383.692 219.738 383.692Z" fill="white"></path><path d="M599.179 373.211H554.575C552.41 373.211 550.655 374.964 550.655 377.127V379.773C550.655 381.936 552.41 383.689 554.575 383.689H599.179C601.344 383.689 603.099 381.936 603.099 379.773V377.127C603.099 374.964 601.344 373.211 599.179 373.211Z" fill="white"></path><path d="M540.164 164.156H503.457C500.56 164.156 498.212 166.503 498.212 169.397V179.872C498.212 182.767 500.56 185.113 503.457 185.113H540.164C543.061 185.113 545.41 182.767 545.41 179.872V169.397C545.41 166.503 543.061 164.156 540.164 164.156Z" fill="white"></path><path d="M597.85 164.156H561.143C558.246 164.156 555.897 166.503 555.897 169.397V179.872C555.897 182.767 558.246 185.113 561.143 185.113H597.85C600.747 185.113 603.095 182.767 603.095 179.872V169.397C603.095 166.503 600.747 164.156 597.85 164.156Z" fill="#806EFF"></path><path d="M477.233 163.918H215.019C212.122 163.918 209.773 166.264 209.773 169.159V179.634C209.773 182.528 212.122 184.875 215.019 184.875H477.233C480.13 184.875 482.478 182.528 482.478 179.634V169.159C482.478 166.264 480.13 163.918 477.233 163.918Z" fill="white"></path><path d="M283.193 399.41H136.354C133.457 399.41 131.108 401.757 131.108 404.651V420.367C131.108 423.261 133.457 425.608 136.354 425.608H283.193C286.09 425.608 288.438 423.261 288.438 420.367V404.651C288.438 401.757 286.09 399.41 283.193 399.41Z" fill="white"></path><path d="M275.326 416.439H162.573C160.4 416.439 158.641 414.678 158.641 412.51C158.641 410.34 160.403 408.582 162.573 408.582H275.326C277.498 408.582 279.258 410.343 279.258 412.51C279.258 414.681 277.495 416.439 275.326 416.439Z" fill="#D7D7FF"></path><path d="M153.215 414.018C154.054 410.499 151.88 406.967 148.358 406.128C144.836 405.289 141.3 407.461 140.46 410.98C139.62 414.499 141.795 418.032 145.317 418.871C148.839 419.71 152.375 417.537 153.215 414.018Z" fill="#B3B3FF"></path><path d="M456.256 399.41H309.417C306.52 399.41 304.172 401.757 304.172 404.651V420.367C304.172 423.261 306.52 425.608 309.417 425.608H456.256C459.153 425.608 461.502 423.261 461.502 420.367V404.651C461.502 401.757 459.153 399.41 456.256 399.41Z" fill="white"></path><path d="M448.389 416.439H335.636C333.463 416.439 331.704 414.678 331.704 412.51C331.704 410.34 333.466 408.582 335.636 408.582H448.389C450.562 408.582 452.321 410.343 452.321 412.51C452.321 414.681 450.559 416.439 448.389 416.439Z" fill="#D7D7FF"></path><path d="M326.386 413.571C326.966 410 324.539 406.636 320.965 406.056C317.391 405.476 314.023 407.901 313.443 411.472C312.863 415.043 315.29 418.407 318.864 418.987C322.438 419.567 325.806 417.142 326.386 413.571Z" fill="#B3B3FF"></path><path d="M629.317 399.409V425.607H482.475C479.58 425.607 477.229 423.258 477.229 420.366V404.647C477.229 401.755 479.58 399.406 482.475 399.406H629.317V399.409Z" fill="white"></path><path d="M621.587 408.578H508.569C506.469 408.578 504.768 410.278 504.768 412.376V412.64C504.768 414.737 506.469 416.438 508.569 416.438H621.587C623.686 416.438 625.388 414.737 625.388 412.64V412.376C625.388 410.278 623.686 408.578 621.587 408.578Z" fill="#D7D7FF"></path><path d="M499.329 413.994C500.161 410.473 497.978 406.945 494.454 406.114C490.93 405.283 487.399 407.464 486.568 410.984C485.736 414.505 487.918 418.033 491.442 418.864C494.966 419.695 498.497 417.514 499.329 413.994Z" fill="#B3B3FF"></path><g filter="url(#filter1_d_1931_8731)"><path d="M115.375 117H618.829C624.618 117 629.317 121.694 629.317 127.478V143.198H104.887V127.478C104.887 121.694 109.585 117 115.375 117Z" fill="#806EFF"></path></g><path d="M84.3178 211.051H174.808C177.929 211.051 180.464 213.584 180.464 216.701V295.807H78.6621V216.701C78.6621 213.584 81.1972 211.051 84.3178 211.051Z" fill="#D7D7FF"></path><path d="M78.6621 295.805H180.464V346.659C180.464 349.776 177.929 352.309 174.808 352.309H84.3178C81.1972 352.309 78.6621 349.776 78.6621 346.659V295.805Z" fill="white"></path><path d="M169.153 309.932H89.9738C88.4135 309.932 87.1475 308.667 87.1475 307.108C87.1475 305.546 88.4135 304.281 89.9738 304.281H169.153C170.713 304.281 171.979 305.546 171.979 307.108C171.979 308.67 170.713 309.932 169.153 309.932Z" fill="#B3B3FF"></path><path d="M152.186 321.233H89.9738C88.4135 321.233 87.1475 319.969 87.1475 318.41C87.1475 316.851 88.4135 315.586 89.9738 315.586H152.186C153.746 315.586 155.012 316.851 155.012 318.41C155.012 319.971 153.746 321.233 152.186 321.233Z" fill="#D7D7FF"></path><path d="M129.563 332.534H89.9738C88.4135 332.534 87.1475 331.269 87.1475 329.71C87.1475 328.152 88.4135 326.887 89.9738 326.887H129.563C131.124 326.887 132.39 328.152 132.39 329.71C132.39 331.272 131.124 332.534 129.563 332.534Z" fill="#36CCC4"></path><path d="M91.0286 338.328L91.9915 340.187L94.1403 340.484L92.5859 341.933L92.9515 343.979L91.0286 343.011L89.1057 343.979L89.4743 341.933L87.9199 340.484L90.0687 340.187L91.0286 338.328Z" fill="#FFC800"></path><path d="M101.493 338.328L102.452 340.187L104.601 340.484L103.047 341.933L103.415 343.979L101.493 343.011L99.5696 343.979L99.9382 341.933L98.3809 340.484L100.53 340.187L101.493 338.328Z" fill="#FFC800"></path><path d="M111.954 338.328L112.917 340.187L115.066 340.484L113.512 341.933L113.877 343.979L111.954 343.011L110.034 343.979L110.4 341.933L108.846 340.484L110.994 340.187L111.954 338.328Z" fill="#FFC800"></path><path d="M122.418 338.328L123.378 340.187L125.53 340.484L123.973 341.933L124.341 343.979L122.418 343.011L120.495 343.979L120.864 341.933L119.307 340.484L121.458 340.187L122.418 338.328Z" fill="#FFC800"></path><path d="M135.992 340.484L133.843 340.187L132.883 338.328L131.923 340.187L129.774 340.484L131.329 341.933L130.96 343.979L132.883 343.014L134.806 343.979L134.437 341.933L135.992 340.484ZM133.118 342.538C133.044 342.5 132.96 342.482 132.88 342.482C132.8 342.482 132.717 342.5 132.642 342.538L131.665 343.028L131.846 342.025C131.879 341.847 131.816 341.668 131.685 341.544L130.945 340.855L131.991 340.709C132.161 340.686 132.309 340.582 132.39 340.427L132.88 339.477L133.37 340.427C133.451 340.579 133.596 340.686 133.769 340.709L134.815 340.855L134.075 341.544C133.944 341.666 133.882 341.847 133.914 342.025L134.096 343.028L133.118 342.538Z" fill="#FFC800"></path><path d="M129.605 227.152H141.003L142.067 279.702H136.807L133.701 256.476L129.605 234.721V227.152Z" fill="white"></path><path d="M129.605 227.152H118.21L117.146 279.702H122.404L125.513 256.476L129.605 234.721V227.152Z" fill="white"></path><path d="M141.002 225.875H118.207C117.854 225.875 117.568 226.16 117.568 226.513C117.568 226.867 117.854 227.152 118.207 227.152H141.002C141.356 227.152 141.641 226.867 141.641 226.513C141.641 226.16 141.356 225.875 141.002 225.875Z" fill="#B3B3FF"></path><path d="M122.362 279.703H117.093C116.739 279.703 116.454 279.988 116.454 280.341C116.454 280.695 116.739 280.98 117.093 280.98H122.362C122.716 280.98 123.001 280.695 123.001 280.341C123.001 279.988 122.716 279.703 122.362 279.703Z" fill="#B3B3FF"></path><path d="M142.037 279.703H136.768C136.414 279.703 136.129 279.988 136.129 280.341C136.129 280.695 136.414 280.98 136.768 280.98H142.037C142.391 280.98 142.676 280.695 142.676 280.341C142.676 279.988 142.391 279.703 142.037 279.703Z" fill="#B3B3FF"></path><path d="M203.086 211.051H293.577C296.697 211.051 299.232 213.584 299.232 216.701V295.807H197.431V216.701C197.431 213.584 199.966 211.051 203.086 211.051Z" fill="#D7D7FF"></path><path d="M197.431 295.805H299.232V346.659C299.232 349.776 296.697 352.309 293.577 352.309H203.086C199.966 352.309 197.431 349.776 197.431 346.659V295.805Z" fill="white"></path><path d="M287.921 309.932H208.742C207.182 309.932 205.916 308.667 205.916 307.108C205.916 305.546 207.182 304.281 208.742 304.281H287.921C289.485 304.281 290.751 305.546 290.751 307.108C290.751 308.67 289.485 309.932 287.921 309.932Z" fill="#B3B3FF"></path><path d="M282.266 321.233H208.742C207.182 321.233 205.916 319.969 205.916 318.41C205.916 316.851 207.182 315.586 208.742 315.586H282.266C283.826 315.586 285.092 316.851 285.092 318.41C285.092 319.971 283.826 321.233 282.266 321.233Z" fill="#D7D7FF"></path><path d="M248.332 332.534H208.742C207.182 332.534 205.916 331.269 205.916 329.71C205.916 328.152 207.182 326.887 208.742 326.887H248.332C249.895 326.887 251.161 328.152 251.161 329.71C251.161 331.272 249.895 332.534 248.332 332.534Z" fill="#36CCC4"></path><path d="M209.797 338.328L210.76 340.187L212.909 340.484L211.354 341.933L211.72 343.979L209.797 343.011L207.874 343.979L208.243 341.933L206.688 340.484L208.837 340.187L209.797 338.328Z" fill="#FFC800"></path><path d="M220.261 338.328L221.221 340.187L223.37 340.484L221.815 341.933L222.184 343.979L220.261 343.011L218.338 343.979L218.704 341.933L217.149 340.484L219.298 340.187L220.261 338.328Z" fill="#FFC800"></path><path d="M230.723 338.328L231.686 340.187L233.835 340.484L232.28 341.933L232.646 343.979L230.723 343.011L228.8 343.979L229.169 341.933L227.614 340.484L229.763 340.187L230.723 338.328Z" fill="#FFC800"></path><path d="M244.298 340.484L242.15 340.187L241.19 338.328L240.23 340.187L238.081 340.484L239.635 341.933L239.267 343.979L241.19 343.014L243.113 343.979L242.744 341.933L244.298 340.484ZM241.425 342.538L241.187 342.42L240.949 342.538L239.971 343.028L240.153 342.025L240.203 341.74L239.992 341.544L239.252 340.855L240.298 340.709L240.569 340.671L240.693 340.427L241.184 339.477L241.674 340.427L241.799 340.671L242.069 340.709L243.116 340.855L242.376 341.544L242.165 341.74L242.215 342.025L242.396 343.028L241.419 342.538H241.425Z" fill="#FFC800"></path><path d="M254.76 340.484L252.612 340.187L251.652 338.328L250.692 340.187L248.543 340.484L250.097 341.933L249.729 343.979L251.652 343.014L253.575 343.979L253.206 341.933L254.76 340.484ZM251.886 342.538L251.649 342.42L251.411 342.538L250.433 343.028L250.614 342.025L250.665 341.74L250.454 341.544L249.714 340.855L250.76 340.709L251.031 340.671L251.155 340.427L251.646 339.477L252.136 340.427L252.261 340.671L252.531 340.709L253.577 340.855L252.837 341.544L252.626 341.74L252.677 342.025L252.858 343.028L251.88 342.538H251.886Z" fill="#FFC800"></path><path d="M281.626 244.838L278.104 248.353C276.999 249.455 275.21 249.455 274.107 248.353L268.047 242.299C268.047 242.299 265.426 250.15 265.426 258.927C265.426 267.704 268.047 276.784 268.047 276.784C268.047 278.342 266.781 279.61 265.218 279.61H231.471C229.908 279.61 228.642 278.345 228.642 276.784C228.642 276.784 231.263 265.738 231.263 258.27C231.263 250.803 228.642 242.266 228.642 242.266L222.549 248.353C221.444 249.458 219.655 249.458 218.549 248.353L215.033 244.841C213.928 243.736 213.928 241.949 215.033 240.844L222.454 233.433C226.416 229.475 231.789 227.254 237.391 227.254H259.271C264.876 227.254 270.249 229.478 274.211 233.436L281.626 240.844C282.732 241.949 282.732 243.736 281.626 244.841V244.838Z" fill="white"></path><path d="M239.864 227.246C239.864 231.926 243.659 235.723 248.349 235.723C253.039 235.723 256.834 231.926 256.834 227.246H239.867H239.864Z" fill="#D7D7FF"></path><path d="M255.14 227.246C255.14 230.993 252.096 234.034 248.349 234.034C244.601 234.034 241.558 230.993 241.558 227.246H255.142H255.14Z" fill="white"></path><path d="M321.855 211.051H412.345C415.466 211.051 418.001 213.584 418.001 216.701V295.807H316.199V216.701C316.199 213.584 318.734 211.051 321.855 211.051Z" fill="#D7D7FF"></path><path d="M316.199 295.805H418.001V346.659C418.001 349.776 415.466 352.309 412.345 352.309H321.855C318.734 352.309 316.199 349.776 316.199 346.659V295.805Z" fill="white"></path><path d="M406.69 309.932H327.511C325.951 309.932 324.685 308.667 324.685 307.108C324.685 305.546 325.951 304.281 327.511 304.281H406.69C408.253 304.281 409.519 305.546 409.519 307.108C409.519 308.67 408.253 309.932 406.69 309.932Z" fill="#B3B3FF"></path><path d="M384.067 321.233H327.511C325.951 321.233 324.685 319.969 324.685 318.41C324.685 316.851 325.951 315.586 327.511 315.586H384.067C385.628 315.586 386.894 316.851 386.894 318.41C386.894 319.971 385.628 321.233 384.067 321.233Z" fill="#D7D7FF"></path><path d="M367.1 332.534H327.511C325.951 332.534 324.685 331.269 324.685 329.71C324.685 328.152 325.951 326.887 327.511 326.887H367.1C368.664 326.887 369.93 328.152 369.93 329.71C369.93 331.272 368.664 332.534 367.1 332.534Z" fill="#36CCC4"></path><path d="M328.566 338.328L329.529 340.187L331.677 340.484L330.123 341.933L330.489 343.979L328.566 343.011L326.643 343.979L327.011 341.933L325.457 340.484L327.606 340.187L328.566 338.328Z" fill="#FFC800"></path><path d="M339.03 338.328L339.99 340.187L342.138 340.484L340.584 341.933L340.952 343.979L339.03 343.011L337.107 343.979L337.472 341.933L335.918 340.484L338.067 340.187L339.03 338.328Z" fill="#FFC800"></path><path d="M349.491 338.328L350.454 340.187L352.603 340.484L351.049 341.933L351.414 343.979L349.491 343.011L347.569 343.979L347.937 341.933L346.383 340.484L348.532 340.187L349.491 338.328Z" fill="#FFC800"></path><path d="M359.955 338.328L360.915 340.187L363.067 340.484L361.51 341.933L361.878 343.979L359.955 343.011L358.033 343.979L358.401 341.933L356.844 340.484L358.993 340.187L359.955 338.328Z" fill="#FFC800"></path><path d="M373.529 340.484L371.38 340.187L370.42 338.328L369.46 340.187L367.312 340.484L368.866 341.933L368.497 343.979L370.42 343.014L372.343 343.979L371.975 341.933L373.529 340.484ZM370.655 342.538L370.417 342.42L370.179 342.538L369.202 343.028L369.383 342.025L369.434 341.74L369.222 341.544L368.482 340.855L369.529 340.709L369.799 340.671L369.924 340.427L370.414 339.477L370.905 340.427L371.029 340.671L371.3 340.709L372.346 340.855L371.606 341.544L371.395 341.74L371.446 342.025L371.627 343.028L370.649 342.538H370.655Z" fill="#FFC800"></path><path d="M384.653 232.473H349.545V237.517H384.653V232.473Z" fill="#B3B3FF"></path><path d="M398.291 269.849C398.291 269.849 397.173 270.259 395.102 270.823C391.77 271.747 385.978 273.086 378.408 273.831C376.179 274.051 373.793 274.22 371.276 274.312C369.923 274.36 368.526 274.386 367.1 274.386C352.484 274.386 341.696 271.625 337.66 270.411C336.515 270.069 335.912 269.849 335.912 269.849L336.86 267.245L342.477 251.847L344.873 245.267L349.539 232.473C349.539 232.473 357.495 236.045 367.495 236.045C377.496 236.045 384.649 232.473 384.649 232.473L387.182 239.421L388.801 243.854L397.277 267.085L398.285 269.852L398.291 269.849Z" fill="#F0F2F7"></path><path d="M354.453 243.58C355.408 242.625 355.408 241.078 354.453 240.124C353.498 239.169 351.949 239.169 350.994 240.124C350.039 241.078 350.039 242.625 350.994 243.58C351.949 244.534 353.498 244.534 354.453 243.58Z" fill="#D7D7FF"></path><path d="M398.291 269.847C398.291 269.847 397.174 270.257 395.102 270.821C394.861 270.444 394.725 269.999 394.725 269.521C394.725 268.17 395.821 267.074 397.168 267.074C397.203 267.074 397.245 267.074 397.283 267.08L398.291 269.847Z" fill="#B3B3FF"></path><path d="M388.81 243.851C388.417 244.133 387.93 244.296 387.404 244.296C386.052 244.296 384.955 243.201 384.955 241.856C384.955 240.511 385.936 239.525 387.19 239.418L388.81 243.851Z" fill="#B3B3FF"></path><path d="M373.081 249.967C374.329 249.45 374.922 248.021 374.405 246.774C373.888 245.527 372.457 244.935 371.209 245.452C369.961 245.968 369.368 247.398 369.885 248.644C370.402 249.891 371.833 250.483 373.081 249.967Z" fill="#D7D7FF"></path><path d="M351.994 269.008C353.345 269.008 354.44 267.914 354.44 266.565C354.44 265.215 353.345 264.121 351.994 264.121C350.643 264.121 349.548 265.215 349.548 266.565C349.548 267.914 350.643 269.008 351.994 269.008Z" fill="#D7D7FF"></path><path d="M381.163 263.101C381.379 261.769 380.474 260.514 379.141 260.298C377.807 260.082 376.551 260.986 376.334 262.318C376.118 263.651 377.023 264.906 378.357 265.122C379.69 265.338 380.946 264.434 381.163 263.101Z" fill="#D7D7FF"></path><path d="M378.408 273.831C376.179 274.05 373.793 274.22 371.276 274.312C371.261 274.202 371.255 274.098 371.255 273.988C371.255 272.014 372.86 270.41 374.836 270.41C376.812 270.41 378.334 271.93 378.408 273.831Z" fill="#B3B3FF"></path><path d="M347.509 248.665C347.509 250.61 345.931 252.187 343.984 252.187C343.443 252.187 342.935 252.065 342.48 251.845L344.876 245.266C346.392 245.655 347.509 247.032 347.509 248.665Z" fill="#B3B3FF"></path><path d="M355.447 254.39C355.447 255.382 354.641 256.187 353.649 256.187C352.656 256.187 351.851 255.382 351.851 254.39C351.851 253.398 352.656 252.594 353.649 252.594C354.641 252.594 355.447 253.398 355.447 254.39Z" fill="#D7D7FF"></path><path d="M389.2 262.097C389.2 263.089 388.394 263.894 387.402 263.894C386.409 263.894 385.604 263.089 385.604 262.097C385.604 261.105 386.409 260.301 387.402 260.301C388.394 260.301 389.2 261.105 389.2 262.097Z" fill="#D7D7FF"></path><path d="M372.88 256.187C372.88 257.179 372.075 257.983 371.082 257.983C370.09 257.983 369.284 257.179 369.284 256.187C369.284 255.195 370.09 254.391 371.082 254.391C372.075 254.391 372.88 255.195 372.88 256.187Z" fill="#B3B3FF"></path><path d="M338.331 269.013C338.331 269.58 338.07 270.088 337.66 270.411C336.515 270.07 335.912 269.85 335.912 269.85L336.86 267.246C337.698 267.403 338.328 268.137 338.328 269.013H338.331Z" fill="#B3B3FF"></path><path d="M389.53 253.906C389.53 254.897 388.724 255.702 387.732 255.702C386.739 255.702 385.934 254.897 385.934 253.906C385.934 252.914 386.739 252.109 387.732 252.109C388.724 252.109 389.53 252.914 389.53 253.906Z" fill="#B3B3FF"></path><path d="M365.014 261.414C365.014 262.405 364.209 263.21 363.216 263.21C362.223 263.21 361.418 262.405 361.418 261.414C361.418 260.422 362.223 259.617 363.216 259.617C364.209 259.617 365.014 260.422 365.014 261.414Z" fill="#D7D7FF"></path><path d="M361.929 244.288C361.929 245.105 361.266 245.764 360.452 245.764C359.637 245.764 358.975 245.102 358.975 244.288C358.975 243.475 359.637 242.812 360.452 242.812C361.266 242.812 361.929 243.475 361.929 244.288Z" fill="#B3B3FF"></path><path d="M344.596 262.096C345.412 262.096 346.073 261.435 346.073 260.62C346.073 259.805 345.412 259.145 344.596 259.145C343.78 259.145 343.119 259.805 343.119 260.62C343.119 261.435 343.78 262.096 344.596 262.096Z" fill="#B3B3FF"></path><path d="M362.751 270.49C363.567 270.49 364.229 269.83 364.229 269.015C364.229 268.2 363.567 267.539 362.751 267.539C361.936 267.539 361.274 268.2 361.274 269.015C361.274 269.83 361.936 270.49 362.751 270.49Z" fill="#B3B3FF"></path><path d="M384.956 270.03C385.771 270.03 386.433 269.369 386.433 268.554C386.433 267.739 385.771 267.078 384.956 267.078C384.14 267.078 383.479 267.739 383.479 268.554C383.479 269.369 384.14 270.03 384.956 270.03Z" fill="#B3B3FF"></path><path d="M379.24 240.558C379.24 241.374 378.578 242.033 377.763 242.033C376.949 242.033 376.286 241.371 376.286 240.558C376.286 239.744 376.949 239.082 377.763 239.082C378.578 239.082 379.24 239.744 379.24 240.558Z" fill="#B3B3FF"></path><path d="M369.284 240.949C369.284 241.552 368.797 242.039 368.193 242.039C367.59 242.039 367.103 241.552 367.103 240.949C367.103 240.346 367.59 239.859 368.193 239.859C368.797 239.859 369.284 240.346 369.284 240.949Z" fill="#D7D7FF"></path><path d="M363.843 252.59C363.843 253.192 363.355 253.679 362.752 253.679C362.149 253.679 361.661 253.192 361.661 252.59C361.661 251.987 362.149 251.5 362.752 251.5C363.355 251.5 363.843 251.987 363.843 252.59Z" fill="#D7D7FF"></path><path d="M371.879 264.644C371.879 265.247 371.391 265.734 370.788 265.734C370.185 265.734 369.697 265.247 369.697 264.644C369.697 264.042 370.185 263.555 370.788 263.555C371.391 263.555 371.879 264.042 371.879 264.644Z" fill="#D7D7FF"></path><path d="M381.425 251.504C381.425 252.107 380.937 252.593 380.334 252.593C379.731 252.593 379.243 252.107 379.243 251.504C379.243 250.901 379.731 250.414 380.334 250.414C380.937 250.414 381.425 250.901 381.425 251.504Z" fill="#D7D7FF"></path><path d="M440.623 211.051H531.114C534.234 211.051 536.77 213.584 536.77 216.701V295.807H434.968V216.701C434.968 213.584 437.503 211.051 440.623 211.051Z" fill="#D7D7FF"></path><path d="M434.968 295.805H536.77V346.659C536.77 349.776 534.234 352.309 531.114 352.309H440.623C437.503 352.309 434.968 349.776 434.968 346.659V295.805Z" fill="white"></path><path d="M525.459 309.932H446.279C444.719 309.932 443.453 308.667 443.453 307.108C443.453 305.546 444.719 304.281 446.279 304.281H525.459C527.022 304.281 528.285 305.546 528.285 307.108C528.285 308.67 527.019 309.932 525.459 309.932Z" fill="#B3B3FF"></path><path d="M514.147 321.233H446.279C444.719 321.233 443.453 319.969 443.453 318.41C443.453 316.851 444.719 315.586 446.279 315.586H514.147C515.708 315.586 516.974 316.851 516.974 318.41C516.974 319.971 515.708 321.233 514.147 321.233Z" fill="#D7D7FF"></path><path d="M485.869 332.534H446.279C444.719 332.534 443.453 331.269 443.453 329.71C443.453 328.152 444.719 326.887 446.279 326.887H485.869C487.429 326.887 488.695 328.152 488.695 329.71C488.695 331.272 487.429 332.534 485.869 332.534Z" fill="#36CCC4"></path><path d="M447.334 338.328L448.297 340.187L450.446 340.484L448.892 341.933L449.257 343.979L447.334 343.011L445.411 343.979L445.78 341.933L444.226 340.484L446.374 340.187L447.334 338.328Z" fill="#FFC800"></path><path d="M457.798 338.328L458.758 340.187L460.907 340.484L459.352 341.933L459.721 343.979L457.798 343.011L455.875 343.979L456.241 341.933L454.687 340.484L456.835 340.187L457.798 338.328Z" fill="#FFC800"></path><path d="M468.26 338.328L469.223 340.187L471.372 340.484L469.817 341.933L470.183 343.979L468.26 343.011L466.337 343.979L466.706 341.933L465.151 340.484L467.3 340.187L468.26 338.328Z" fill="#FFC800"></path><path d="M478.724 338.328L479.684 340.187L481.833 340.484L480.278 341.933L480.647 343.979L478.724 343.011L476.801 343.979L477.17 341.933L475.612 340.484L477.761 340.187L478.724 338.328Z" fill="#FFC800"></path><path d="M492.297 340.484L490.149 340.187L489.189 338.328L488.229 340.187L486.08 340.484L487.634 341.933L487.266 343.979L489.189 343.014L491.112 343.979L490.743 341.933L492.297 340.484ZM489.424 342.538L489.186 342.42L488.948 342.538L487.97 343.028L488.152 342.025L488.202 341.74L487.991 341.544L487.251 340.855L488.297 340.709L488.568 340.671L488.692 340.427L489.183 339.477L489.673 340.427L489.798 340.671L490.068 340.709L491.115 340.855L490.375 341.544L490.164 341.74L490.214 342.025L490.395 343.028L489.418 342.538H489.424Z" fill="#FFC800"></path><path d="M485.869 255.924C479.033 255.924 473.47 250.365 473.47 243.536C473.47 236.707 479.03 231.148 485.869 231.148C492.707 231.148 498.268 236.707 498.268 243.536C498.268 250.365 492.704 255.924 485.869 255.924ZM485.869 233.791C480.492 233.791 476.118 238.162 476.118 243.536C476.118 248.91 480.492 253.281 485.869 253.281C491.245 253.281 495.623 248.91 495.623 243.536C495.623 238.162 491.248 233.791 485.869 233.791Z" fill="#B3B3FF"></path><path d="M502.999 274.385H468.735C463.713 274.385 460.028 269.67 461.246 264.804L465.838 246.457C466.269 244.741 467.811 243.535 469.583 243.535H502.152C503.924 243.535 505.466 244.741 505.897 246.457L510.489 264.804C511.707 269.67 508.022 274.385 502.999 274.385Z" fill="white"></path><path d="M491.114 254.264H491.117C492.564 255.713 492.562 258.059 491.114 259.505L485.866 264.748L480.62 259.507C479.173 258.061 479.176 255.716 480.623 254.27H480.626C482.073 252.821 484.418 252.821 485.863 254.267H485.866C487.313 252.818 489.664 252.818 491.111 254.264H491.114Z" fill="#E83D6A"></path><path d="M558.163 211.051H651.111C653.554 211.051 655.536 213.031 655.536 215.472V295.807H553.734V215.472C553.734 213.031 555.717 211.051 558.16 211.051H558.163Z" fill="#D7D7FF"></path><path d="M553.737 295.805H655.539V347.888C655.539 350.329 653.557 352.309 651.114 352.309H558.166C555.723 352.309 553.74 350.329 553.74 347.888V295.805H553.737Z" fill="white"></path><path d="M644.228 309.932H565.049C563.489 309.932 562.223 308.667 562.223 307.108C562.223 305.546 563.489 304.281 565.049 304.281H644.228C645.788 304.281 647.054 305.546 647.054 307.108C647.054 308.67 645.788 309.932 644.228 309.932Z" fill="#B3B3FF"></path><path d="M644.228 321.233H565.049C563.489 321.233 562.223 319.969 562.223 318.41C562.223 316.851 563.489 315.586 565.049 315.586H644.228C645.788 315.586 647.054 316.851 647.054 318.41C647.054 319.971 645.788 321.233 644.228 321.233Z" fill="#D7D7FF"></path><path d="M604.639 332.534H565.049C563.489 332.534 562.223 331.269 562.223 329.71C562.223 328.152 563.489 326.887 565.049 326.887H604.639C606.202 326.887 607.468 328.152 607.468 329.71C607.468 331.272 606.202 332.534 604.639 332.534Z" fill="#36CCC4"></path><path d="M566.104 338.328L567.067 340.187L569.215 340.484L567.658 341.933L568.027 343.979L566.104 343.011L564.181 343.979L564.549 341.933L562.995 340.484L565.144 340.187L566.104 338.328Z" fill="#FFC800"></path><path d="M576.568 338.328L577.528 340.187L579.676 340.484L578.122 341.933L578.491 343.979L576.568 343.011L574.645 343.979L575.01 341.933L573.456 340.484L575.605 340.187L576.568 338.328Z" fill="#FFC800"></path><path d="M587.03 338.328L587.992 340.187L590.141 340.484L588.587 341.933L588.952 343.979L587.03 343.011L585.107 343.979L585.475 341.933L583.921 340.484L586.07 340.187L587.03 338.328Z" fill="#FFC800"></path><path d="M597.494 338.328L598.453 340.187L600.602 340.484L599.048 341.933L599.416 343.979L597.494 343.011L595.571 343.979L595.936 341.933L594.382 340.484L596.531 340.187L597.494 338.328Z" fill="#FFC800"></path><path d="M607.955 338.328L608.918 340.187L611.067 340.484L609.513 341.933L609.878 343.979L607.955 343.011L606.032 343.979L606.401 341.933L604.847 340.484L606.995 340.187L607.955 338.328Z" fill="#FFC800"></path><path d="M587.059 260.898H575.84C575.034 260.898 574.381 261.551 574.381 262.356V277.868C574.381 278.673 575.034 279.325 575.84 279.325H587.059C587.865 279.325 588.518 278.673 588.518 277.868V262.356C588.518 261.551 587.865 260.898 587.059 260.898Z" fill="#B3B3FF"></path><path d="M576.916 243.855H585.986C586.39 243.855 586.717 244.182 586.717 244.586V260.902H576.188V244.586C576.188 244.182 576.514 243.855 576.919 243.855H576.916Z" fill="white"></path><path d="M585.303 243.856H577.597V232.709C577.597 231.908 578.025 231.162 578.723 230.744L583.868 227.668C584.495 227.293 585.303 227.733 585.303 228.454V243.856Z" fill="#E83D6A"></path><path d="M634.896 233.395H603.224V276.903H634.896V233.395Z" fill="#B3B3FF"></path><path d="M626.979 233.395H595.307V276.903H626.979V233.395Z" fill="white"></path><path d="M616.943 249.955H616.946C618.545 251.558 618.542 254.15 616.943 255.748L611.142 261.547L605.343 255.754C603.744 254.156 603.747 251.561 605.346 249.964H605.349C606.948 248.36 609.54 248.36 611.139 249.961H611.142C612.74 248.357 615.341 248.357 616.94 249.958L616.943 249.955Z" fill="#E83D6A"></path><path d="M138.93 130.735C139.28 128.594 137.825 126.575 135.682 126.226C133.539 125.876 131.518 127.329 131.169 129.471C130.819 131.612 132.274 133.631 134.417 133.98C136.56 134.329 138.581 132.876 138.93 130.735Z" fill="#E83D6A"></path><path d="M153.554 132.875C155.089 131.341 155.089 128.854 153.554 127.32C152.018 125.786 149.529 125.786 147.993 127.32C146.458 128.854 146.458 131.341 147.993 132.875C149.529 134.409 152.018 134.409 153.554 132.875Z" fill="#FFC800"></path><path d="M170.397 130.731C170.746 128.59 169.292 126.571 167.149 126.222C165.006 125.873 162.985 127.325 162.636 129.467C162.286 131.608 163.74 133.627 165.884 133.976C168.027 134.325 170.048 132.872 170.397 130.731Z" fill="#36CCC4"></path><path d="M476.926 180.575C476.516 180.985 475.853 180.985 475.443 180.575L469.511 174.648C469.101 174.239 469.101 173.576 469.511 173.167C469.921 172.757 470.584 172.757 470.994 173.167L476.926 179.093C477.336 179.503 477.336 180.165 476.926 180.575Z" fill="#F0F2F7"></path><path d="M469.511 178.403C472.408 178.403 474.757 176.057 474.757 173.163C474.757 170.268 472.408 167.922 469.511 167.922C466.614 167.922 464.266 170.268 464.266 173.163C464.266 176.057 466.614 178.403 469.511 178.403Z" fill="#F0F2F7"></path><path d="M469.511 176.83C471.538 176.83 473.182 175.188 473.182 173.163C473.182 171.138 471.538 169.496 469.511 169.496C467.484 169.496 465.841 171.138 465.841 173.163C465.841 175.188 467.484 176.83 469.511 176.83Z" fill="white"></path><path d="M514.197 176.468V172.035H515.009V175.8H517.08V176.465H514.197V176.468Z" fill="#806EFF"></path><path d="M518.18 176.325C517.942 176.195 517.758 176.007 517.63 175.767C517.499 175.523 517.434 175.241 517.434 174.918C517.434 174.594 517.499 174.312 517.63 174.072C517.76 173.831 517.945 173.644 518.18 173.516C518.417 173.386 518.694 173.32 519.006 173.32C519.318 173.32 519.597 173.386 519.832 173.516C520.07 173.647 520.251 173.831 520.379 174.072C520.507 174.312 520.572 174.594 520.572 174.918C520.572 175.241 520.507 175.523 520.379 175.767C520.251 176.01 520.067 176.198 519.832 176.325C519.594 176.456 519.318 176.521 519.006 176.521C518.694 176.521 518.414 176.456 518.18 176.325ZM519.585 175.66C519.719 175.491 519.787 175.244 519.787 174.918C519.787 174.591 519.719 174.348 519.585 174.178C519.452 174.009 519.258 173.923 519.006 173.923C518.753 173.923 518.56 174.009 518.423 174.178C518.287 174.348 518.218 174.594 518.218 174.918C518.218 175.241 518.284 175.491 518.42 175.66C518.554 175.826 518.747 175.912 519 175.912C519.252 175.912 519.452 175.829 519.585 175.66Z" fill="#806EFF"></path><path d="M524.216 173.395V176.186C524.216 176.667 524.082 177.032 523.818 177.281C523.55 177.528 523.158 177.652 522.638 177.652C522.37 177.652 522.112 177.617 521.862 177.548C521.615 177.48 521.398 177.382 521.214 177.258L521.434 176.705C521.818 176.937 522.21 177.05 522.617 177.05C523.161 177.05 523.434 176.782 523.434 176.245V175.844C523.342 176.016 523.208 176.15 523.033 176.242C522.858 176.337 522.656 176.385 522.43 176.385C522.162 176.385 521.924 176.319 521.716 176.192C521.508 176.064 521.345 175.886 521.229 175.654C521.11 175.423 521.054 175.158 521.054 174.855C521.054 174.553 521.11 174.285 521.226 174.054C521.342 173.822 521.502 173.641 521.713 173.513C521.924 173.386 522.162 173.32 522.43 173.32C522.656 173.32 522.858 173.368 523.033 173.463C523.208 173.558 523.345 173.691 523.434 173.861V173.395H524.216ZM523.226 175.526C523.366 175.363 523.437 175.137 523.437 174.852C523.437 174.567 523.366 174.336 523.226 174.172C523.087 174.009 522.89 173.926 522.638 173.926C522.385 173.926 522.195 174.006 522.052 174.172C521.91 174.336 521.838 174.561 521.838 174.852C521.838 175.143 521.91 175.357 522.052 175.523C522.195 175.69 522.391 175.773 522.638 175.773C522.884 175.773 523.087 175.69 523.226 175.526Z" fill="#806EFF"></path><path d="M524.985 171.969H525.853V172.744H524.985V171.969ZM525.03 176.47V173.397H525.818V176.47H525.03Z" fill="#806EFF"></path><path d="M529.238 173.637C529.42 173.848 529.509 174.162 529.509 174.587V176.473H528.721V174.632C528.721 174.391 528.677 174.219 528.585 174.109C528.495 173.999 528.353 173.946 528.16 173.946C527.934 173.946 527.752 174.017 527.616 174.16C527.479 174.302 527.411 174.492 527.411 174.733V176.476H526.623V173.402H527.39V173.863C527.494 173.69 527.636 173.56 527.812 173.468C527.987 173.376 528.186 173.328 528.409 173.328C528.778 173.328 529.054 173.432 529.235 173.643L529.238 173.637Z" fill="#806EFF"></path><path d="M144.387 176.23V171.797H147.356V172.438H145.177V173.659H147.228V174.294H145.177V175.589H147.356V176.23H144.387Z" fill="white"></path><path d="M148.024 174.866V174.242H149.9V174.866H148.024Z" fill="white"></path><path d="M151.676 176.01C151.353 175.823 151.103 175.559 150.928 175.214C150.752 174.87 150.666 174.469 150.666 174.015C150.666 173.56 150.752 173.159 150.928 172.818C151.103 172.477 151.353 172.212 151.676 172.025C152 171.838 152.381 171.746 152.818 171.746C153.115 171.746 153.397 171.791 153.662 171.886C153.926 171.978 154.149 172.108 154.33 172.275L154.06 172.865C153.858 172.705 153.659 172.589 153.463 172.518C153.266 172.444 153.055 172.408 152.833 172.408C152.405 172.408 152.075 172.545 151.84 172.824C151.608 173.1 151.492 173.498 151.492 174.018C151.492 174.537 151.608 174.941 151.84 175.217C152.072 175.493 152.405 175.633 152.833 175.633C153.055 175.633 153.264 175.597 153.463 175.523C153.659 175.449 153.858 175.333 154.06 175.173L154.33 175.763C154.149 175.93 153.929 176.06 153.662 176.152C153.397 176.244 153.118 176.292 152.818 176.292C152.381 176.292 152 176.2 151.676 176.013V176.01Z" fill="white"></path><path d="M155.516 176.09C155.279 175.959 155.094 175.772 154.967 175.529C154.836 175.285 154.771 175.003 154.771 174.679C154.771 174.356 154.836 174.074 154.967 173.833C155.097 173.593 155.282 173.406 155.516 173.278C155.754 173.147 156.031 173.082 156.343 173.082C156.655 173.082 156.934 173.147 157.169 173.278C157.407 173.409 157.588 173.593 157.716 173.833C157.844 174.074 157.909 174.356 157.909 174.679C157.909 175.003 157.844 175.285 157.716 175.529C157.588 175.772 157.404 175.959 157.169 176.09C156.931 176.221 156.655 176.286 156.343 176.286C156.031 176.286 155.751 176.221 155.516 176.09ZM156.922 175.422C157.056 175.253 157.124 175.006 157.124 174.679C157.124 174.353 157.056 174.109 156.922 173.94C156.788 173.771 156.595 173.685 156.343 173.685C156.09 173.685 155.897 173.771 155.76 173.94C155.623 174.109 155.555 174.356 155.555 174.679C155.555 175.003 155.62 175.253 155.757 175.422C155.891 175.591 156.084 175.674 156.337 175.674C156.589 175.674 156.788 175.591 156.922 175.422Z" fill="white"></path><path d="M162.994 173.393C163.166 173.601 163.252 173.918 163.252 174.346V176.231H162.465V174.376C162.465 174.141 162.426 173.969 162.346 173.862C162.266 173.755 162.138 173.702 161.962 173.702C161.751 173.702 161.588 173.773 161.472 173.915C161.356 174.058 161.297 174.257 161.297 174.512V176.228H160.509V174.373C160.509 174.138 160.471 173.966 160.393 173.859C160.316 173.752 160.185 173.699 160.007 173.699C159.802 173.699 159.641 173.77 159.522 173.912C159.407 174.055 159.347 174.254 159.347 174.509V176.226H158.56V173.152H159.326V173.586C159.418 173.417 159.546 173.292 159.71 173.206C159.873 173.12 160.06 173.078 160.268 173.078C160.735 173.078 161.044 173.271 161.193 173.657C161.291 173.476 161.428 173.336 161.609 173.233C161.79 173.129 161.989 173.078 162.212 173.078C162.56 173.078 162.821 173.182 162.994 173.39V173.393Z" fill="white"></path><path d="M168.49 173.393C168.662 173.601 168.748 173.918 168.748 174.346V176.231H167.961V174.376C167.961 174.141 167.922 173.969 167.842 173.862C167.762 173.755 167.634 173.702 167.459 173.702C167.248 173.702 167.084 173.773 166.968 173.915C166.852 174.058 166.793 174.257 166.793 174.512V176.228H166.005V174.373C166.005 174.138 165.967 173.966 165.889 173.859C165.812 173.752 165.681 173.699 165.503 173.699C165.298 173.699 165.137 173.77 165.019 173.912C164.903 174.055 164.843 174.254 164.843 174.509V176.226H164.056V173.152H164.822V173.586C164.915 173.417 165.042 173.292 165.206 173.206C165.369 173.12 165.557 173.078 165.765 173.078C166.231 173.078 166.54 173.271 166.689 173.657C166.787 173.476 166.924 173.336 167.105 173.233C167.286 173.129 167.485 173.078 167.708 173.078C168.056 173.078 168.317 173.182 168.49 173.39V173.393Z" fill="white"></path><path d="M172.246 174.836H170.151C170.177 175.121 170.261 175.332 170.409 175.471C170.555 175.611 170.766 175.679 171.039 175.679C171.378 175.679 171.69 175.569 171.969 175.353L172.195 175.893C172.053 176.012 171.871 176.104 171.657 176.175C171.44 176.246 171.224 176.282 171.007 176.282C170.504 176.282 170.106 176.139 169.815 175.854C169.524 175.569 169.378 175.18 169.378 174.684C169.378 174.37 169.44 174.091 169.565 173.847C169.69 173.604 169.868 173.417 170.097 173.28C170.326 173.146 170.585 173.078 170.876 173.078C171.298 173.078 171.634 173.215 171.88 173.488C172.127 173.761 172.249 174.135 172.249 174.613V174.833L172.246 174.836ZM170.385 173.835C170.258 173.969 170.177 174.162 170.151 174.414H171.574C171.565 174.159 171.503 173.966 171.387 173.832C171.271 173.699 171.105 173.633 170.897 173.633C170.689 173.633 170.519 173.702 170.391 173.835H170.385Z" fill="white"></path><path d="M174.915 173.738L174.454 173.783C173.934 173.836 173.672 174.1 173.672 174.576V176.235H172.885V173.162H173.634V173.703C173.794 173.334 174.124 173.133 174.623 173.1L174.864 173.082L174.915 173.741V173.738Z" fill="white"></path><path d="M175.798 176.09C175.56 175.959 175.378 175.775 175.254 175.538C175.129 175.3 175.066 175.021 175.066 174.7C175.066 174.38 175.132 174.1 175.266 173.854C175.399 173.608 175.587 173.421 175.83 173.284C176.074 173.15 176.356 173.082 176.674 173.082C176.891 173.082 177.105 173.118 177.313 173.186C177.521 173.254 177.688 173.349 177.813 173.465L177.587 174.017C177.456 173.913 177.319 173.833 177.174 173.777C177.028 173.723 176.885 173.697 176.743 173.697C176.469 173.697 176.258 173.783 176.107 173.952C175.955 174.121 175.881 174.365 175.881 174.685C175.881 175.006 175.958 175.241 176.107 175.413C176.258 175.582 176.469 175.668 176.743 175.668C176.885 175.668 177.028 175.642 177.174 175.588C177.319 175.535 177.456 175.454 177.587 175.348L177.813 175.894C177.679 176.016 177.506 176.111 177.295 176.179C177.084 176.247 176.867 176.283 176.642 176.283C176.318 176.283 176.038 176.218 175.8 176.087L175.798 176.09Z" fill="white"></path><path d="M181.008 174.836H178.912C178.939 175.121 179.022 175.332 179.171 175.471C179.317 175.611 179.528 175.679 179.801 175.679C180.14 175.679 180.452 175.569 180.731 175.353L180.957 175.893C180.814 176.012 180.633 176.104 180.419 176.175C180.202 176.246 179.985 176.282 179.768 176.282C179.266 176.282 178.868 176.139 178.577 175.854C178.285 175.569 178.14 175.18 178.14 174.684C178.14 174.37 178.202 174.091 178.327 173.847C178.452 173.604 178.63 173.417 178.859 173.28C179.088 173.146 179.346 173.078 179.638 173.078C180.06 173.078 180.395 173.215 180.642 173.488C180.889 173.761 181.011 174.135 181.011 174.613V174.833L181.008 174.836ZM179.147 173.835C179.019 173.969 178.939 174.162 178.912 174.414H180.336C180.327 174.159 180.265 173.966 180.149 173.832C180.033 173.699 179.866 173.633 179.658 173.633C179.45 173.633 179.281 173.702 179.153 173.835H179.147Z" fill="white"></path><path d="M568.924 176.392C568.627 176.3 568.374 176.169 568.169 176.003L568.439 175.412C568.653 175.575 568.879 175.694 569.117 175.771C569.355 175.845 569.61 175.884 569.887 175.884C570.193 175.884 570.428 175.83 570.594 175.724C570.761 175.617 570.844 175.468 570.844 175.275C570.844 175.106 570.766 174.978 570.615 174.892C570.463 174.803 570.208 174.72 569.851 174.64C569.483 174.56 569.182 174.468 568.951 174.364C568.719 174.26 568.546 174.123 568.428 173.963C568.309 173.8 568.252 173.592 568.252 173.339C568.252 173.087 568.323 172.846 568.466 172.642C568.609 172.437 568.811 172.276 569.069 172.16C569.328 172.045 569.628 171.988 569.97 171.988C570.282 171.988 570.576 172.036 570.859 172.131C571.138 172.226 571.37 172.354 571.551 172.517L571.281 173.108C570.885 172.793 570.448 172.636 569.97 172.636C569.685 172.636 569.459 172.692 569.292 172.808C569.126 172.924 569.043 173.084 569.043 173.289C569.043 173.461 569.117 173.592 569.263 173.684C569.408 173.776 569.658 173.862 570.012 173.942C570.386 174.025 570.689 174.12 570.921 174.221C571.153 174.325 571.331 174.456 571.456 174.613C571.581 174.773 571.64 174.972 571.64 175.216C571.64 175.48 571.569 175.712 571.429 175.911C571.29 176.11 571.084 176.264 570.82 176.371C570.552 176.478 570.24 176.531 569.878 176.531C569.539 176.531 569.218 176.484 568.921 176.392H568.924Z" fill="white"></path><path d="M572.276 171.969H573.144V172.744H572.276V171.969ZM572.321 176.47V173.397H573.109V176.47H572.321Z" fill="white"></path><path d="M576.915 173.395V176.186C576.915 176.667 576.781 177.032 576.517 177.281C576.249 177.528 575.857 177.652 575.337 177.652C575.069 177.652 574.811 177.617 574.561 177.548C574.315 177.48 574.098 177.382 573.913 177.258L574.133 176.705C574.517 176.937 574.909 177.05 575.316 177.05C575.86 177.05 576.133 176.782 576.133 176.245V175.844C576.041 176.016 575.908 176.15 575.732 176.242C575.557 176.337 575.355 176.385 575.129 176.385C574.861 176.385 574.624 176.319 574.416 176.192C574.208 176.064 574.044 175.886 573.928 175.654C573.809 175.423 573.753 175.158 573.753 174.855C573.753 174.553 573.809 174.285 573.925 174.054C574.041 173.822 574.202 173.641 574.413 173.513C574.624 173.386 574.861 173.32 575.129 173.32C575.355 173.32 575.557 173.368 575.732 173.463C575.908 173.558 576.044 173.691 576.133 173.861V173.395H576.915ZM575.925 175.526C576.065 175.363 576.136 175.137 576.136 174.852C576.136 174.567 576.065 174.336 575.925 174.172C575.786 174.009 575.59 173.926 575.337 173.926C575.084 173.926 574.894 174.006 574.752 174.172C574.609 174.339 574.537 174.561 574.537 174.852C574.537 175.143 574.609 175.357 574.752 175.523C574.894 175.69 575.09 175.773 575.337 175.773C575.584 175.773 575.786 175.69 575.925 175.526Z" fill="white"></path><path d="M580.339 173.637C580.52 173.848 580.609 174.162 580.609 174.587V176.473H579.822V174.632C579.822 174.391 579.777 174.219 579.685 174.109C579.596 173.999 579.453 173.946 579.26 173.946C579.034 173.946 578.853 174.017 578.716 174.16C578.58 174.302 578.511 174.492 578.511 174.733V176.476H577.724V173.402H578.49V173.863C578.594 173.69 578.737 173.56 578.912 173.468C579.088 173.376 579.287 173.328 579.51 173.328C579.878 173.328 580.155 173.432 580.336 173.643L580.339 173.637Z" fill="white"></path><path d="M583.629 176.055C583.314 175.741 583.156 175.281 583.156 174.678V172.038H583.95V174.722C583.95 175.105 584.039 175.393 584.22 175.586C584.402 175.782 584.666 175.877 585.014 175.877C585.361 175.877 585.62 175.779 585.801 175.58C585.983 175.384 586.072 175.096 586.072 174.719V172.035H586.865V174.675C586.865 175.275 586.708 175.732 586.393 176.05C586.078 176.367 585.62 176.525 585.014 176.525C584.407 176.525 583.944 176.367 583.629 176.053V176.055Z" fill="white"></path><path d="M590.203 173.519C590.411 173.653 590.572 173.843 590.688 174.089C590.804 174.333 590.86 174.615 590.86 174.936C590.86 175.256 590.804 175.532 590.688 175.773C590.572 176.01 590.411 176.198 590.206 176.325C590.001 176.456 589.763 176.521 589.496 176.521C589.279 176.521 589.083 176.474 588.91 176.382C588.738 176.29 588.607 176.162 588.512 175.999V177.602H587.725V173.395H588.5V173.861C588.592 173.688 588.726 173.555 588.899 173.463C589.074 173.368 589.27 173.32 589.493 173.32C589.757 173.32 589.992 173.389 590.2 173.522L590.203 173.519ZM589.867 175.654C590.007 175.485 590.075 175.244 590.075 174.936C590.075 174.627 590.007 174.368 589.867 174.193C589.728 174.018 589.537 173.929 589.288 173.929C589.038 173.929 588.842 174.015 588.705 174.187C588.569 174.36 588.5 174.606 588.5 174.924C588.5 175.241 588.569 175.482 588.705 175.654C588.842 175.826 589.035 175.912 589.288 175.912C589.54 175.912 589.728 175.826 589.867 175.657V175.654Z" fill="white"></path><path d="M732.94 447.09H1.26606C0.566833 447.09 0 447.656 0 448.355V448.444C0 449.142 0.566833 449.709 1.26606 449.709H732.94C733.64 449.709 734.206 449.142 734.206 448.444V448.355C734.206 447.656 733.64 447.09 732.94 447.09Z" fill="#F0F2F7"></path><path d="M686.179 419.149C681.855 419.149 676.761 409.549 669.807 396.449L669.75 396.342C662.918 383.295 660.463 375.454 662.02 371.659C662.502 370.486 663.366 369.693 664.591 369.301C667.595 368.301 672.202 370.243 676.904 374.495C681.879 378.993 686.075 385.341 688.414 391.909C692.524 403.165 691.805 412.732 689.398 416.857C688.637 418.16 687.695 418.938 686.667 419.107C686.506 419.134 686.343 419.149 686.179 419.149ZM666.285 369.975C665.777 369.975 665.307 370.044 664.879 370.186C663.91 370.495 663.259 371.092 662.882 372.012C661.455 375.483 663.973 383.301 670.573 395.906L670.63 396.01C676.942 407.898 682.417 418.214 686.176 418.214C686.289 418.214 686.402 418.205 686.512 418.184C687.258 418.059 687.977 417.436 688.592 416.381C691.731 411.007 690.438 400.161 687.537 392.221C685.249 385.79 681.145 379.581 676.28 375.18C672.603 371.855 668.936 369.969 666.288 369.969L666.285 369.975Z" fill="#A7EAE5"></path><path d="M692.561 400.045C692.46 400.045 692.362 400.037 692.261 400.019C691.631 399.915 691.057 399.446 690.602 398.668C689.241 396.337 688.828 390.954 691.131 384.644C694.023 376.523 701.084 370.79 704.621 371.965C705.358 372.2 705.881 372.681 706.172 373.391C707.076 375.588 705.75 379.867 701.875 387.266L701.842 387.325C697.949 394.662 695.093 400.04 692.561 400.04V400.045ZM703.622 372.749C700.543 372.749 694.591 377.708 692.008 384.962C690.415 389.327 689.699 395.274 691.408 398.202C691.717 398.733 692.067 399.045 692.418 399.101C694.365 399.434 697.595 393.344 701.019 386.895L701.049 386.838C702.383 384.291 706.449 376.526 705.31 373.75C705.126 373.299 704.805 373.008 704.333 372.856C704.119 372.785 703.881 372.749 703.622 372.749Z" fill="#A7EAE5"></path><path d="M685.591 418.212C690.172 418.212 693.885 405.91 693.885 390.735C693.885 375.56 690.172 363.258 685.591 363.258C681.01 363.258 677.296 375.56 677.296 390.735C677.296 405.91 681.01 418.212 685.591 418.212Z" fill="#36CCC4"></path><path d="M685.591 413.007C685.332 413.007 685.124 412.8 685.124 412.541V368.923C685.124 368.665 685.332 368.457 685.591 368.457C685.849 368.457 686.057 368.665 686.057 368.923V412.541C686.057 412.8 685.849 413.007 685.591 413.007Z" fill="#A7EAE5"></path><path d="M707.458 401.882C698.872 411.303 693.514 419.27 690.182 418.373C686.999 417.577 685.088 407.625 691.425 396.172C697.651 384.595 711.616 378.44 716.972 381.43C722.47 384.378 715.881 392.526 707.455 401.879L707.458 401.882Z" fill="#36CCC4"></path><path d="M691.529 414.64C691.475 414.64 691.422 414.631 691.371 414.613C691.131 414.527 691.003 414.26 691.092 414.017C695.134 402.796 702.549 392.51 712.538 384.271C712.737 384.107 713.031 384.134 713.194 384.333C713.358 384.532 713.331 384.826 713.132 384.989C703.274 393.122 695.957 403.271 691.972 414.331C691.903 414.521 691.725 414.64 691.532 414.64H691.529Z" fill="#A7EAE5"></path><path d="M678.33 400.719C684.028 410.096 683.835 418.775 681.097 419.805C678.277 420.886 673.02 414.428 666.241 406.111C659.551 397.812 654.781 390.273 658.659 388.126C662.454 385.968 672.702 391.289 678.33 400.716V400.719Z" fill="#36CCC4"></path><path d="M679.608 416.763C679.43 416.763 679.26 416.662 679.183 416.49C675.019 407.321 669.055 398.879 661.458 391.4C661.274 391.218 661.274 390.924 661.452 390.74C661.634 390.556 661.928 390.556 662.112 390.734C669.792 398.294 675.822 406.831 680.033 416.104C680.14 416.338 680.033 416.614 679.801 416.721C679.739 416.751 679.673 416.763 679.608 416.763Z" fill="#A7EAE5"></path><path d="M695.069 447.09H675.778C673.668 447.09 671.855 445.602 671.439 443.536L666.045 416.584C665.771 415.215 666.817 413.941 668.214 413.941H702.632C704.029 413.941 705.075 415.218 704.802 416.584L699.408 443.536C698.995 445.602 697.179 447.09 695.069 447.09Z" fill="#F0F2F7"></path><path d="M616.035 421.148H581.453V455.698H616.035V421.148Z" fill="#B3B3FF"></path><path d="M605.395 421.148H570.813V455.698H605.395V421.148Z" fill="#CCCCFF"></path><path d="M590.764 421.148H585.444V455.698H590.764V421.148Z" fill="#B3B3FF"></path><path d="M605.393 441.081V435.766H570.811V441.081H605.393Z" fill="#B3B3FF"></path><path d="M616.035 441.081V435.766H605.396V441.081H616.035Z" fill="#A9A9FF"></path><path d="M640.67 386.594H606.088V421.144H640.67V386.594Z" fill="#B3B3FF"></path><path d="M630.03 386.594H595.448V421.144H630.03V386.594Z" fill="#CCCCFF"></path><path d="M615.399 386.594H610.079V421.144H615.399V386.594Z" fill="#B3B3FF"></path><path d="M630.03 406.53V401.215H595.448V406.53H630.03Z" fill="#B3B3FF"></path><path d="M640.673 406.526V401.211H630.033V406.526H640.673Z" fill="#A9A9FF"></path><path d="M658.303 421.148H623.721V455.698H658.303V421.148Z" fill="#B3B3FF"></path><path d="M647.663 421.148H613.081V455.698H647.663V421.148Z" fill="#CCCCFF"></path><path d="M633.032 421.148H627.712V455.698H633.032V421.148Z" fill="#B3B3FF"></path><path d="M647.663 441.081V435.766H613.081V441.081H647.663Z" fill="#B3B3FF"></path><path d="M658.303 441.081V435.766H647.663V441.081H658.303Z" fill="#A9A9FF"></path><path d="M505.012 492.189C505.012 492.189 505.859 451.38 510.231 418.914V368.586H526.936C526.936 368.586 523.28 407.18 520.933 418.914L510.754 492.189H505.012Z" fill="#EFB600"></path><path d="M520.686 301.566C520.686 301.566 524.609 304.634 526.175 314.313H521.378L520.686 301.566Z" fill="#ED7CAA"></path><path d="M526.172 314.312C526.172 314.312 526.662 324.482 528.326 330.545C529.991 336.608 539.679 362.227 542.226 366.336C544.773 370.446 548.295 373.474 547.609 374.356C546.922 375.238 544.28 373.866 541.638 370.642C538.996 367.414 534.591 359.688 531.557 353.628C528.523 347.565 522.748 330.453 521.77 326.347C520.793 322.24 521.378 314.318 521.378 314.318H526.175L526.172 314.312Z" fill="#FECCC6"></path><path d="M515.538 267.083C515.538 267.083 512.025 261.984 505.496 261.984C500.039 261.984 495.442 266.236 495.442 270.895C495.442 277.056 497.597 280.575 494.951 285.661C492.309 290.747 473.506 326.363 499.062 326.363C519.42 326.363 517.657 310.11 517.559 301.015C517.461 291.92 514.034 288.206 512.275 282.045C510.513 275.883 515.538 267.083 515.538 267.083Z" fill="#481AA0"></path><path d="M504.542 312.062V284.486C504.542 284.486 501.704 281.749 501.704 277.25C501.704 272.752 504.837 269.23 509.535 269.23C514.234 269.23 515.8 272.85 515.506 278.521C515.212 284.192 511.788 285.267 510.709 285.659C510.709 285.659 509.404 292.803 514.929 297.002V312.059H504.542V312.062Z" fill="#FECCC6"></path><path d="M515.539 277.055C515.539 277.055 511.687 275.98 510.023 271.968C510.023 271.968 509.33 276.268 504.542 279.721V284.484H499.647V267.078H515.539C515.539 267.078 517.218 269.887 515.539 277.052V277.055Z" fill="#481AA0"></path><path d="M505.012 492.19V502.473H508.308V499.147C508.308 499.147 509.874 502.129 516.92 502.129H523.679C524.689 502.129 525.245 500.908 524.543 500.184C524.353 499.988 524.089 499.824 523.723 499.732C522.011 499.293 519.366 496.555 516.677 496.555C513.987 496.555 510.757 494.664 510.757 492.188H505.015L505.012 492.19Z" fill="#481AA0"></path><path d="M490.526 492.189C490.526 492.189 491.373 451.38 495.745 418.914V368.586H512.451C512.451 368.586 508.795 407.18 506.447 418.914L496.268 492.189H490.526Z" fill="#FFD13E"></path><path d="M490.526 492.19V502.473H493.822V499.147C493.822 499.147 495.388 502.129 502.435 502.129H509.282C510.132 502.129 510.703 501.208 510.275 500.475C510.088 500.151 509.767 499.869 509.238 499.732C507.526 499.293 504.881 496.555 502.191 496.555C499.502 496.555 496.271 494.664 496.271 492.188H490.529L490.526 492.19Z" fill="#481AA0"></path><path d="M495.745 368.588C495.745 368.588 504.488 371.457 510.23 371.457C515.972 371.457 523.28 368.588 526.935 368.588C526.935 368.588 527.848 349.422 526.023 339.252C524.195 329.083 522.367 324.258 523.283 314.741C524.195 305.225 519.758 297.793 514.932 297.009C514.932 297.009 513.235 299.747 512.453 305.745C512.453 305.745 508.016 296.879 502.666 297.009C502.666 297.009 489.878 295.967 488.573 316.045V318.1L495.623 318.29L495.837 316.71C495.837 316.71 496.797 312.393 497.644 309.914C497.644 309.914 502.797 316.562 504.105 324.386C505.409 332.209 503.451 340.161 500.842 347.462C498.232 354.764 495.751 358.805 495.751 368.585L495.745 368.588Z" fill="#FF92B9"></path><path d="M568.458 503.003C572.773 503.003 576.271 499.508 576.271 495.197C576.271 490.886 572.773 487.391 568.458 487.391C564.143 487.391 560.645 490.886 560.645 495.197C560.645 499.508 564.143 503.003 568.458 503.003Z" fill="#481AA0"></path><path d="M572.345 495.846C572.692 493.715 571.243 491.706 569.109 491.36C566.975 491.014 564.965 492.461 564.618 494.593C564.272 496.725 565.721 498.734 567.855 499.08C569.988 499.426 571.999 497.978 572.345 495.846Z" fill="white"></path><path d="M643.429 503.003C647.744 503.003 651.242 499.508 651.242 495.197C651.242 490.886 647.744 487.391 643.429 487.391C639.113 487.391 635.615 490.886 635.615 495.197C635.615 499.508 639.113 503.003 643.429 503.003Z" fill="#481AA0"></path><path d="M646.196 497.964C647.724 496.437 647.724 493.961 646.196 492.434C644.667 490.907 642.189 490.907 640.66 492.434C639.132 493.961 639.132 496.437 640.66 497.964C642.189 499.491 644.667 499.491 646.196 497.964Z" fill="white"></path><path d="M660.657 456.534H568.458C568.226 456.534 568.021 456.382 567.953 456.163L545.437 384.177C545.437 384.177 545.437 384.171 545.434 384.165L542.878 375.99C540.385 368.015 533.088 362.659 524.725 362.659H515.803C515.512 362.659 515.274 362.421 515.274 362.13C515.274 361.839 515.512 361.602 515.803 361.602H524.725C533.555 361.602 541.255 367.258 543.889 375.679L546.337 383.509L673.609 390.549C673.76 390.557 673.903 390.632 673.998 390.753C674.093 390.875 674.129 391.03 674.099 391.181L661.18 456.112C661.13 456.359 660.913 456.537 660.66 456.537L660.657 456.534ZM568.847 455.477H660.223L672.94 391.57L546.673 384.583L568.847 455.477Z" fill="#481AA0"></path><path d="M647.664 465.726H568.458C568.166 465.726 567.929 465.489 567.929 465.198V456.005C567.929 455.714 568.166 455.477 568.458 455.477C568.749 455.477 568.987 455.714 568.987 456.005V464.669H647.664C647.955 464.669 648.193 464.907 648.193 465.198C648.193 465.489 647.955 465.726 647.664 465.726Z" fill="#481AA0"></path><path d="M658.113 487.241H555.146C554.855 487.241 554.617 487.003 554.617 486.712V478.5C554.617 470.875 560.826 464.672 568.458 464.672C568.749 464.672 568.987 464.909 568.987 465.2C568.987 465.491 568.749 465.729 568.458 465.729C561.411 465.729 555.675 471.457 555.675 478.5V486.184H658.11C658.401 486.184 658.639 486.421 658.639 486.712C658.639 487.003 658.401 487.241 658.11 487.241H658.113Z" fill="#481AA0"></path><path d="M529.504 365.719H511.363C509.815 365.719 508.558 364.463 508.558 362.916C508.558 361.369 509.815 360.113 511.363 360.113H529.504C531.052 360.113 532.31 361.369 532.31 362.916C532.31 364.463 531.052 365.719 529.504 365.719Z" fill="#B3B3FF"></path><path d="M579.897 456.534C579.629 456.534 579.397 456.332 579.371 456.059L572.119 385.542C572.089 385.251 572.3 384.993 572.592 384.963C572.88 384.937 573.141 385.144 573.171 385.435L580.423 455.952C580.452 456.243 580.241 456.501 579.95 456.531C579.932 456.531 579.914 456.531 579.897 456.531V456.534Z" fill="#481AA0"></path><path d="M596.887 456.537C596.608 456.537 596.373 456.317 596.358 456.035L592.789 386.662C592.774 386.371 593 386.122 593.291 386.107C593.556 386.086 593.832 386.318 593.847 386.609L597.416 455.982C597.431 456.273 597.208 456.522 596.914 456.537C596.905 456.537 596.896 456.537 596.887 456.537Z" fill="#481AA0"></path><path d="M613.872 456.537C613.581 456.537 613.343 456.299 613.343 456.008V387.779C613.343 387.488 613.581 387.25 613.872 387.25C614.163 387.25 614.401 387.488 614.401 387.779V456.008C614.401 456.299 614.163 456.537 613.872 456.537Z" fill="#481AA0"></path><path d="M630.857 456.538C630.857 456.538 630.839 456.538 630.83 456.538C630.539 456.523 630.313 456.273 630.328 455.982L633.781 388.878C633.796 388.587 634.055 388.358 634.337 388.376C634.628 388.391 634.854 388.64 634.839 388.931L631.386 456.036C631.371 456.318 631.136 456.538 630.857 456.538Z" fill="#481AA0"></path><path d="M647.848 456.536C647.83 456.536 647.812 456.536 647.795 456.536C647.503 456.506 647.292 456.245 647.322 455.957L654.11 389.978C654.14 389.687 654.398 389.482 654.69 389.506C654.981 389.535 655.192 389.797 655.162 390.085L648.374 456.064C648.347 456.337 648.116 456.539 647.848 456.539V456.536Z" fill="#481AA0"></path><path d="M671.127 403.928H551.999C551.707 403.928 551.47 403.691 551.47 403.4C551.47 403.109 551.707 402.871 551.999 402.871H671.127C671.418 402.871 671.656 403.109 671.656 403.4C671.656 403.691 671.418 403.928 671.127 403.928Z" fill="#481AA0"></path><path d="M667.549 421.92H557.631C557.339 421.92 557.102 421.683 557.102 421.392C557.102 421.101 557.339 420.863 557.631 420.863H667.549C667.84 420.863 668.078 421.101 668.078 421.392C668.078 421.683 667.84 421.92 667.549 421.92Z" fill="#481AA0"></path><path d="M663.962 439.909H563.259C562.968 439.909 562.73 439.671 562.73 439.38C562.73 439.089 562.968 438.852 563.259 438.852H663.962C664.253 438.852 664.491 439.089 664.491 439.38C664.491 439.671 664.253 439.909 663.962 439.909Z" fill="#481AA0"></path><path d="M488.567 316.043V341.207C488.567 343.814 513.285 355.029 515.372 358.156C517.458 361.282 516.807 362.393 516.807 363.892C516.807 365.392 518.243 367.283 519.809 367.283C521.375 367.283 522.418 365.457 522.418 363.761C522.418 362.066 521.625 357.333 519.274 356.226C516.926 355.118 511.716 351.311 509.237 349.355C506.759 347.398 496.188 339.369 494.425 338C494.425 338 494.47 325.969 495.828 316.711C495.828 316.711 494.17 317.418 491.926 317.251C489.682 317.085 488.564 316.043 488.564 316.043H488.567Z" fill="#FECCC6"></path><path d="M101.71 418.898H67.1279V453.448H101.71V418.898Z" fill="#B3B3FF"></path><path d="M91.0701 418.898H56.4883V453.448H91.0701V418.898Z" fill="#CCCCFF"></path><path d="M76.439 418.898H71.1191V453.448H76.439V418.898Z" fill="#B3B3FF"></path><path d="M91.0674 438.831V433.516H56.4856V438.831H91.0674Z" fill="#B3B3FF"></path><path d="M101.713 438.831V433.516H91.0733V438.831H101.713Z" fill="#A9A9FF"></path><path d="M120.854 500.753C125.169 500.753 128.668 497.258 128.668 492.947C128.668 488.636 125.169 485.141 120.854 485.141C116.539 485.141 113.041 488.636 113.041 492.947C113.041 497.258 116.539 500.753 120.854 500.753Z" fill="#481AA0"></path><path d="M120.855 496.86C123.016 496.86 124.769 495.109 124.769 492.95C124.769 490.79 123.016 489.039 120.855 489.039C118.693 489.039 116.94 490.79 116.94 492.95C116.94 495.109 118.693 496.86 120.855 496.86Z" fill="white"></path><path d="M45.8865 500.753C50.2017 500.753 53.6998 497.258 53.6998 492.947C53.6998 488.636 50.2017 485.141 45.8865 485.141C41.5714 485.141 38.0732 488.636 38.0732 492.947C38.0732 497.258 41.5714 500.753 45.8865 500.753Z" fill="#481AA0"></path><path d="M45.8867 496.86C48.0484 496.86 49.8008 495.109 49.8008 492.95C49.8008 490.79 48.0484 489.039 45.8867 489.039C43.725 489.039 41.9727 490.79 41.9727 492.95C41.9727 495.109 43.725 496.86 45.8867 496.86Z" fill="white"></path><path d="M120.855 454.287H28.6555C28.4029 454.287 28.1859 454.109 28.1354 453.862L15.2163 388.931C15.1865 388.78 15.2222 388.625 15.3173 388.503C15.4124 388.382 15.5521 388.307 15.7066 388.299L142.978 381.259L145.427 373.429C148.06 365.008 155.761 359.352 164.59 359.352H173.515C173.806 359.352 174.044 359.589 174.044 359.88C174.044 360.171 173.806 360.409 173.515 360.409H164.59C156.227 360.409 148.931 365.768 146.437 373.74L143.882 381.915V381.921L121.363 453.91C121.295 454.129 121.09 454.281 120.858 454.281L120.855 454.287ZM29.0894 453.23H120.465L142.639 382.336L16.3724 389.323L29.0894 453.23Z" fill="#481AA0"></path><path d="M120.855 463.477H41.6491C41.3579 463.477 41.1201 463.24 41.1201 462.949C41.1201 462.658 41.3579 462.42 41.6491 462.42H120.326V453.759C120.326 453.468 120.564 453.23 120.855 453.23C121.146 453.23 121.384 453.468 121.384 453.759V462.952C121.384 463.243 121.146 463.48 120.855 463.48V463.477Z" fill="#481AA0"></path><path d="M134.167 484.991H31.1999C30.9087 484.991 30.6709 484.753 30.6709 484.463C30.6709 484.172 30.9087 483.934 31.1999 483.934H133.638V476.25C133.638 469.207 127.905 463.479 120.855 463.479C120.564 463.479 120.326 463.241 120.326 462.95C120.326 462.659 120.564 462.422 120.855 462.422C128.487 462.422 134.696 468.625 134.696 476.25V484.463C134.696 484.753 134.458 484.991 134.167 484.991Z" fill="#481AA0"></path><path d="M159.808 363.465H177.949C179.499 363.465 180.755 362.21 180.755 360.662C180.755 359.114 179.499 357.859 177.949 357.859H159.808C158.259 357.859 157.003 359.114 157.003 360.662C157.003 362.21 158.259 363.465 159.808 363.465Z" fill="#B3B3FF"></path><path d="M109.416 454.288C109.398 454.288 109.38 454.288 109.362 454.288C109.071 454.258 108.86 453.997 108.89 453.709L116.141 383.193C116.171 382.902 116.432 382.697 116.721 382.721C117.012 382.75 117.223 383.012 117.193 383.3L109.942 453.816C109.915 454.089 109.683 454.291 109.416 454.291V454.288Z" fill="#481AA0"></path><path d="M92.4252 454.287C92.4252 454.287 92.4074 454.287 92.3985 454.287C92.1072 454.272 91.8813 454.022 91.8962 453.731L95.4655 384.358C95.4804 384.067 95.7479 383.839 96.0213 383.856C96.3125 383.871 96.5384 384.121 96.5236 384.412L92.9542 453.785C92.9394 454.067 92.7046 454.287 92.4252 454.287Z" fill="#481AA0"></path><path d="M75.4401 454.286C75.1489 454.286 74.9111 454.049 74.9111 453.758V385.525C74.9111 385.234 75.1489 384.996 75.4401 384.996C75.7314 384.996 75.9692 385.234 75.9692 385.525V453.758C75.9692 454.049 75.7314 454.286 75.4401 454.286Z" fill="#481AA0"></path><path d="M58.4587 454.288C58.1793 454.288 57.9446 454.068 57.9297 453.786L54.4763 386.681C54.4614 386.39 54.6873 386.141 54.9785 386.126C55.252 386.108 55.5194 386.334 55.5343 386.628L58.9877 453.732C59.0026 454.023 58.7797 454.273 58.4855 454.288C58.4765 454.288 58.4676 454.288 58.4587 454.288Z" fill="#481AA0"></path><path d="M41.4643 454.287C41.1968 454.287 40.965 454.085 40.9382 453.812L34.1503 387.835C34.1205 387.544 34.3315 387.286 34.6228 387.256C34.914 387.229 35.1726 387.437 35.2023 387.728L41.9903 453.708C42.02 453.999 41.809 454.257 41.5178 454.287C41.4999 454.287 41.4821 454.287 41.4643 454.287Z" fill="#481AA0"></path><path d="M137.314 401.678H18.1882C17.8969 401.678 17.6592 401.441 17.6592 401.15C17.6592 400.859 17.8969 400.621 18.1882 400.621H137.314C137.605 400.621 137.843 400.859 137.843 401.15C137.843 401.441 137.605 401.678 137.314 401.678Z" fill="#481AA0"></path><path d="M131.684 419.67H21.7663C21.4751 419.67 21.2373 419.433 21.2373 419.142C21.2373 418.851 21.4751 418.613 21.7663 418.613H131.684C131.976 418.613 132.214 418.851 132.214 419.142C132.214 419.433 131.976 419.67 131.684 419.67Z" fill="#481AA0"></path><path d="M126.055 437.662H25.3503C25.059 437.662 24.8213 437.425 24.8213 437.134C24.8213 436.843 25.059 436.605 25.3503 436.605H126.055C126.347 436.605 126.584 436.843 126.584 437.134C126.584 437.425 126.347 437.662 126.055 437.662Z" fill="#481AA0"></path><path d="M236.057 391.244L238.096 383.31L230.289 378.266L228.193 387.565L236.057 391.244Z" fill="#FECCC6"></path><path d="M230.708 383.227L236.057 391.243C236.057 391.243 227.546 424.339 227.546 438.671C227.546 453.003 224.847 488.174 224.847 488.174H216.118L209.934 405.092L196.266 489.632H188.432V383.227H230.708Z" fill="#FFD13E"></path><path d="M216.118 488.046V492.206C216.118 493.266 216.603 494.266 217.438 494.923C219.717 496.713 224.553 500.19 228.725 501.09C234.414 502.316 236.571 498.533 233.57 496.081C230.568 493.628 224.85 492.004 224.85 488.043H216.121L216.118 488.046Z" fill="#481AA0"></path><path d="M196.257 489.628H188.467C188.467 489.628 187.561 493.978 187.561 497.125C187.561 500.273 188.277 502.998 191.644 502.998C195.011 502.998 197.219 500.115 197.008 496.312C196.797 492.508 196.254 489.625 196.254 489.625L196.257 489.628Z" fill="#481AA0"></path><path d="M219.985 295.769C219.985 295.769 217.063 290.593 216.802 283.648H206.314C206.314 283.648 206.052 292.687 204.584 295.769H219.988H219.985Z" fill="#FECCC6"></path><path d="M188.435 312.629V383.225C188.435 383.225 197.229 384.796 210.513 384.796C223.798 384.796 230.708 383.225 230.708 383.225L231.011 380.066L237.826 384.683L240.97 368.557C241.74 362.966 241.882 357.313 241.383 351.692L238.729 321.869C237.817 311.616 231.9 302.471 222.924 297.426L222.49 297.18L220.151 295.865L219.982 295.77H204.578L202.183 296.743L197.983 298.451C192.209 300.793 188.435 306.399 188.435 312.629Z" fill="#806EFF"></path><path d="M188.431 312.629L184.104 342.686L171.045 355.113L176.605 359.881L188.431 351.766V312.629Z" fill="#806EFF"></path><path d="M237.829 384.95C237.778 384.95 237.725 384.936 237.68 384.906L230.865 380.289C230.791 380.238 230.749 380.158 230.749 380.069V362.426C230.749 359.653 230.348 356.897 229.558 354.237C228.048 349.159 227.284 343.898 227.284 338.601V316.421C227.284 316.275 227.403 316.156 227.549 316.156C227.694 316.156 227.813 316.275 227.813 316.421V338.601C227.813 343.847 228.571 349.055 230.066 354.085C230.871 356.793 231.279 359.599 231.279 362.426V379.929L237.977 384.466C238.099 384.55 238.129 384.713 238.049 384.835C237.998 384.909 237.915 384.95 237.829 384.95Z" fill="#481AA0"></path><path d="M203.612 275.959C203.612 275.959 198.756 271.321 200.132 269.284C201.508 267.247 206.709 268.622 206.709 268.622C206.709 268.622 210.992 264.495 216.754 266.787C222.517 269.079 224.794 272.307 223.605 279.504H211.898L203.612 275.959Z" fill="#481AA0"></path><path d="M203.806 285.329C204.367 289.923 205.919 294.21 209.94 294.21C216.805 294.21 219.251 285.106 219.251 285.106C220.645 286.977 222.413 284.53 222.889 283.476C223.361 282.425 224.279 280.421 223.602 279.503C222.921 278.586 221.97 278.791 221.97 278.791C221.97 278.791 220.562 277.386 218.894 276.089C217.866 275.29 216.74 274.533 215.783 274.174C213.265 273.224 203.681 271.392 203.547 276.549C203.491 278.69 203.401 282.084 203.803 285.332L203.806 285.329Z" fill="#FECCC6"></path><path d="M203.806 285.327C204.368 289.921 205.919 294.208 209.94 294.208C216.805 294.208 219.251 285.105 219.251 285.105C219.251 285.105 218.591 284.107 219.251 281.963C219.911 279.828 221.97 278.789 221.97 278.789L219.046 274.172C219.046 274.172 219.004 274.923 218.894 276.087C218.787 277.18 218.63 278.635 218.383 280.182C217.869 283.388 216.85 285.378 215.527 286.907C214.199 288.436 212.882 287.115 212.074 285.684C211.019 283.816 209.301 284 207.212 284.154C205.955 284.249 204.641 284.855 203.797 285.327H203.806Z" fill="#481AA0"></path><path d="M202.186 296.743C202.673 301.931 207.048 305.987 212.365 305.987C217.681 305.987 221.809 302.156 222.49 297.18L220.151 295.865L219.982 295.77H204.578L202.183 296.743H202.186Z" fill="white"></path><path d="M204.581 295.77C204.581 300.066 208.067 303.546 212.365 303.546C216.662 303.546 220.101 300.119 220.151 295.865L219.982 295.77H204.578H204.581Z" fill="#FECCC6"></path><path d="M188.434 352.03C188.289 352.03 188.17 351.911 188.17 351.766V312.631C188.17 312.486 188.289 312.367 188.434 312.367C188.58 312.367 188.699 312.486 188.699 312.631V351.766C188.699 351.911 188.58 352.03 188.434 352.03Z" fill="#481AA0"></path><path d="M236.057 391.507C235.971 391.507 235.887 391.466 235.837 391.389L230.582 383.514C228.529 383.867 208.569 387.104 188.386 383.484C188.241 383.458 188.146 383.321 188.172 383.179C188.199 383.033 188.336 382.941 188.479 382.965C209.591 386.751 230.449 383.003 230.657 382.965C230.761 382.947 230.868 382.992 230.924 383.078L236.274 391.095C236.354 391.216 236.321 391.38 236.199 391.46C236.155 391.489 236.104 391.504 236.054 391.504L236.057 391.507Z" fill="#481AA0"></path><path d="M171.045 355.113C171.045 355.113 165.062 359.523 167.03 363.059C168.997 366.595 173.848 363.409 173.848 363.409C173.848 363.409 173.744 362.584 174.439 361.684C175.134 360.785 176.606 359.882 176.606 359.882L171.045 355.113Z" fill="#FECCC6"></path><path d="M176.606 360.143C176.544 360.143 176.484 360.122 176.434 360.077L170.873 355.309C170.763 355.214 170.749 355.047 170.847 354.935C170.942 354.825 171.108 354.813 171.221 354.908L176.782 359.676C176.892 359.771 176.907 359.938 176.808 360.051C176.755 360.11 176.684 360.143 176.609 360.143H176.606Z" fill="#481AA0"></path><path d="M209.936 405.355C209.936 405.355 209.916 405.355 209.904 405.355C209.758 405.337 209.654 405.207 209.672 405.061L210.953 394.143C210.971 393.998 211.098 393.897 211.247 393.912C211.393 393.929 211.497 394.06 211.479 394.206L210.198 405.123C210.183 405.257 210.067 405.358 209.936 405.358V405.355Z" fill="#481AA0"></path><path d="M188.432 395.02C188.381 395.02 188.331 395.005 188.286 394.975C188.164 394.895 188.132 394.732 188.212 394.61C188.239 394.568 190.907 390.477 191.517 385.848C191.535 385.702 191.668 385.601 191.814 385.619C191.96 385.637 192.061 385.771 192.043 385.916C191.419 390.67 188.681 394.859 188.655 394.901C188.604 394.978 188.521 395.02 188.435 395.02H188.432Z" fill="#481AA0"></path></g><defs><filter id="filter0_d_1931_8731" x="73.8838" y="114.195" width="590.434" height="369.891" filterUnits="userSpaceOnUse" color-interpolation-filters="sRGB"><feFlood flood-opacity="0" result="BackgroundImageFix"></feFlood><feColorMatrix in="SourceAlpha" type="matrix" values="0 0 0 0 0 0 0 0 0 0 0 0 0 0 0 0 0 0 127 0" result="hardAlpha"></feColorMatrix><feOffset dx="2" dy="4"></feOffset><feGaussianBlur stdDeviation="16.5"></feGaussianBlur><feComposite in2="hardAlpha" operator="out"></feComposite><feColorMatrix type="matrix" values="0 0 0 0 0.597292 0 0 0 0 0.772954 0 0 0 0 0.979167 0 0 0 0.25 0"></feColorMatrix><feBlend mode="normal" in2="BackgroundImageFix" result="effect1_dropShadow_1931_8731"></feBlend><feBlend mode="normal" in="SourceGraphic" in2="effect1_dropShadow_1931_8731" result="shape"></feBlend></filter><filter id="filter1_d_1931_8731" x="73.8867" y="88" width="590.43" height="92.1992" filterUnits="userSpaceOnUse" color-interpolation-filters="sRGB"><feFlood flood-opacity="0" result="BackgroundImageFix"></feFlood><feColorMatrix in="SourceAlpha" type="matrix" values="0 0 0 0 0 0 0 0 0 0 0 0 0 0 0 0 0 0 127 0" result="hardAlpha"></feColorMatrix><feOffset dx="2" dy="4"></feOffset><feGaussianBlur stdDeviation="16.5"></feGaussianBlur><feComposite in2="hardAlpha" operator="out"></feComposite><feColorMatrix type="matrix" values="0 0 0 0 0.597292 0 0 0 0 0.772954 0 0 0 0 0.979167 0 0 0 0.25 0"></feColorMatrix><feBlend mode="normal" in2="BackgroundImageFix" result="effect1_dropShadow_1931_8731"></feBlend><feBlend mode="normal" in="SourceGraphic" in2="effect1_dropShadow_1931_8731" result="shape"></feBlend></filter><clipPath id="clip0_1931_8731"><rect width="735" height="386" fill="white" transform="translate(0 117)"></rect></clipPath></defs></svg> 